HIERARCHY
ROOT hip
{
  OFFSET 166.863 85.7665 22.0684
  CHANNELS 6 Xposition Yposition Zposition Zrotation Xrotation Yrotation
  JOINT abdomen
  {
    OFFSET 0 20.6881 -0.73152
    CHANNELS 3 Zrotation Xrotation Yrotation
    JOINT chest
    {
      OFFSET 0 11.7043 -0.48768
      CHANNELS 3 Zrotation Xrotation Yrotation
      JOINT neck
      {
        OFFSET 0 22.1894 -2.19456
        CHANNELS 3 Zrotation Xrotation Yrotation
        JOINT head
        {
          OFFSET -0.24384 7.07133 1.2192
          CHANNELS 3 Zrotation Xrotation Yrotation
          JOINT leftEye
          {
            OFFSET 4.14528 8.04674 8.04672
            CHANNELS 3 Zrotation Xrotation Yrotation
            End Site
            {
              OFFSET 1 0 0
            }
          }
          JOINT rightEye
          {
            OFFSET -3.6576 8.04674 8.04672
            CHANNELS 3 Zrotation Xrotation Yrotation
            End Site
            {
              OFFSET 1 0 0
            }
          }
        }
      }
      JOINT rCollar
      {
        OFFSET -2.68224 19.2634 -4.8768
        CHANNELS 3 Zrotation Xrotation Yrotation
        JOINT rShldr
        {
          OFFSET -8.77824 -1.95073 1.46304
          CHANNELS 3 Zrotation Xrotation Yrotation
          JOINT rForeArm
          {
            OFFSET -28.1742 -1.7115 0.48768
            CHANNELS 3 Zrotation Xrotation Yrotation
            JOINT rHand
            {
              OFFSET -22.5879 0.773209 7.07136
              CHANNELS 3 Zrotation Xrotation Yrotation
              JOINT rThumb1
              {
                OFFSET -1.2192 -0.487915 3.41376
                CHANNELS 3 Zrotation Xrotation Yrotation
                JOINT rThumb2
                {
                  OFFSET -3.37035 -0.52449 3.41376
                  CHANNELS 3 Zrotation Xrotation Yrotation
                  End Site
                  {
                    OFFSET -1.78271 -1.18214 1.43049
                  }
                }
              }
              JOINT rIndex1
              {
                OFFSET -7.75947 0.938293 5.60832
                CHANNELS 3 Zrotation Xrotation Yrotation
                JOINT rIndex2
                {
                  OFFSET -2.54057 -0.884171 1.56538
                  CHANNELS 3 Zrotation Xrotation Yrotation
                  End Site
                  {
                    OFFSET -1.62519 -0.234802 1.16502
                  }
                }
              }
              JOINT rMid1
              {
                OFFSET -8.24714 1.18213 3.41376
                CHANNELS 3 Zrotation Xrotation Yrotation
                JOINT rMid2
                {
                  OFFSET -3.10165 -0.590103 1.0647
                  CHANNELS 3 Zrotation Xrotation Yrotation
                  End Site
                  {
                    OFFSET -2.48547 -0.328903 0.83742
                  }
                }
              }
              JOINT rRing1
              {
                OFFSET -8.82822 0.546677 1.51678
                CHANNELS 3 Zrotation Xrotation Yrotation
                JOINT rRing2
                {
                  OFFSET -2.60934 -0.819778 -0.0198488
                  CHANNELS 3 Zrotation Xrotation Yrotation
                  End Site
                  {
                    OFFSET -2.33842 -0.294052 0.168128
                  }
                }
              }
              JOINT rPinky1
              {
                OFFSET -8.27202 -0.0477905 -0.4584
                CHANNELS 3 Zrotation Xrotation Yrotation
                JOINT rPinky2
                {
                  OFFSET -1.82734 -0.647385 -0.700984
                  CHANNELS 3 Zrotation Xrotation Yrotation
                  End Site
                  {
                    OFFSET -1.69225 -0.51767 -0.607171
                  }
                }
              }
            }
          }
        }
      }
      JOINT lCollar
      {
        OFFSET 2.68224 19.2634 -4.8768
        CHANNELS 3 Zrotation Xrotation Yrotation
        JOINT lShldr
        {
          OFFSET 8.77824 -1.95073 1.46304
          CHANNELS 3 Zrotation Xrotation Yrotation
          JOINT lForeArm
          {
            OFFSET 28.1742 -1.7115 0.48768
            CHANNELS 3 Zrotation Xrotation Yrotation
            JOINT lHand
            {
              OFFSET 22.5879 0.773209 7.07136
              CHANNELS 3 Zrotation Xrotation Yrotation
              JOINT lThumb1
              {
                OFFSET 1.2192 -0.487915 3.41376
                CHANNELS 3 Zrotation Xrotation Yrotation
                JOINT lThumb2
                {
                  OFFSET 3.37035 -0.52449 3.41376
                  CHANNELS 3 Zrotation Xrotation Yrotation
                  End Site
                  {
                    OFFSET 1.78271 -1.18214 1.43049
                  }
                }
              }
              JOINT lIndex1
              {
                OFFSET 7.75947 0.938293 5.60832
                CHANNELS 3 Zrotation Xrotation Yrotation
                JOINT lIndex2
                {
                  OFFSET 2.54057 -0.884171 1.56538
                  CHANNELS 3 Zrotation Xrotation Yrotation
                  End Site
                  {
                    OFFSET 1.62519 -0.234802 1.16502
                  }
                }
              }
              JOINT lMid1
              {
                OFFSET 8.24714 1.18213 3.41376
                CHANNELS 3 Zrotation Xrotation Yrotation
                JOINT lMid2
                {
                  OFFSET 3.10165 -0.590103 1.0647
                  CHANNELS 3 Zrotation Xrotation Yrotation
                  End Site
                  {
                    OFFSET 2.48547 -0.328903 0.83742
                  }
                }
              }
              JOINT lRing1
              {
                OFFSET 8.82822 0.546677 1.51678
                CHANNELS 3 Zrotation Xrotation Yrotation
                JOINT lRing2
                {
                  OFFSET 2.60934 -0.819778 -0.0198488
                  CHANNELS 3 Zrotation Xrotation Yrotation
                  End Site
                  {
                    OFFSET 2.33842 -0.294052 0.168128
                  }
                }
              }
              JOINT lPinky1
              {
                OFFSET 8.27202 -0.0477905 -0.4584
                CHANNELS 3 Zrotation Xrotation Yrotation
                JOINT lPinky2
                {
                  OFFSET 1.82734 -0.647385 -0.700984
                  CHANNELS 3 Zrotation Xrotation Yrotation
                  End Site
                  {
                    OFFSET 1.69225 -0.51767 -0.607171
                  }
                }
              }
            }
          }
        }
      }
    }
  }
  JOINT rButtock
  {
    OFFSET -8.77824 4.35084 1.2192
    CHANNELS 3 Zrotation Xrotation Yrotation
    JOINT rThigh
    {
      OFFSET 0 -1.70687 -2.19456
      CHANNELS 3 Zrotation Xrotation Yrotation
      JOINT rShin
      {
        OFFSET 0 -36.8199 0.73152
        CHANNELS 3 Zrotation Xrotation Yrotation
        JOINT rFoot
        {
          OFFSET 0.73152 -45.1104 -5.12064
          CHANNELS 3 Zrotation Xrotation Yrotation
          End Site
          {
            OFFSET -1.1221 -3.69964 12.103
          }
        }
      }
    }
  }
  JOINT lButtock
  {
    OFFSET 8.77824 4.35084 1.2192
    CHANNELS 3 Zrotation Xrotation Yrotation
    JOINT lThigh
    {
      OFFSET 0 -1.70687 -2.19456
      CHANNELS 3 Zrotation Xrotation Yrotation
      JOINT lShin
      {
        OFFSET 0 -36.8199 0.73152
        CHANNELS 3 Zrotation Xrotation Yrotation
        JOINT lFoot
        {
          OFFSET -0.73152 -45.1104 -5.12064
          CHANNELS 3 Zrotation Xrotation Yrotation
          End Site
          {
            OFFSET 1.1221 -3.69964 12.103
          }
        }
      }
    }
  }
}
MOTION
Frames:	4
Frame Time:	0.00833333
-139.116 85.1731 12.8124 -0.389723 -0.00134232 0.00664154 0.512932 -0.00341814 0.0146932 0.141686 -0.00540198 0.0245504 -5.28096e-016 -7.95139e-016 6.83322e-017 -1.67414e-015 3.18055e-015 2.04997e-016 -0 0 0 -0 0 0 -3.49124e-016 1.51418e-017 1.98785e-016 -4.00957e-015 2.36057e-016 1.59028e-015 -1.0461e-013 3.79679e-014 -1.59028e-014 -1.20595e-012 5.98839e-015 1.46306e-013 -2.84126e-012 9.16087e-014 3.05333e-013 -4.90839e-012 1.59028e-013 5.17635e-013 -2.83109e-012 9.42239e-014 2.92611e-013 7.73091 5.47488 0.417314 -2.84068e-012 9.18385e-014 3.05333e-013 2.90554 0.965183 0.102902 -2.83025e-012 9.23355e-014 3.01358e-013 10.2786 0.731801 0.0259123 -2.84421e-012 9.34288e-014 3.05333e-013 2.22167 -0.733487 -0.20892 -3.46637e-016 1.37829e-017 -9.93923e-017 -8.7143e-015 3.47873e-016 -3.97569e-016 -1.0789e-013 -2.24627e-014 1.59028e-014 -1.20275e-012 7.33267e-014 1.33583e-013 -2.83808e-012 1.07294e-013 3.05333e-013 -4.89368e-012 1.81292e-013 5.35923e-013 -2.84421e-012 1.08934e-013 3.11694e-013 -7.73091 5.47488 -0.417314 -2.8382e-012 1.07443e-013 3.02153e-013 -2.90554 0.965183 -0.102902 -2.84088e-012 1.07244e-013 3.02948e-013 -10.2786 0.731801 -0.0259123 -2.83586e-012 1.07344e-013 2.98972e-013 -2.22167 -0.733487 0.20892 -2.03217e-016 0 -3.88251e-019 0.860001 -4.41146 -0.0729702 -0.00213119 2.43942 -0.0112528 -0.474435 1.97258 0.0938368 2.03217e-016 0 3.88251e-019 -0.0776986 -2.42095 0.0232545 0.00766786 -1.16604 0.0660001 0.465787 3.58744 -0.125217 
-132.066 84.0565 6.30224 -3.59429 -6.02482 23.4267 0.193296 1.76365 1.6948 -0.204054 -0.105598 0.518418 3.00186 3.21619 1.50541 -2.49458 -3.26101 2.62963 -0 0 0 -0 0 0 1.10278e-014 -8.17706e-014 -1.55394e-014 22.4674 8.10999 -0.613415 -4.85297 -2.34769 7.4187 0.0363745 -4.23269 -0.589017 -3.07099e-010 5.06984e-010 8.49493e-010 -5.35915e-010 8.79538e-010 1.46445e-009 -3.07089e-010 5.06986e-010 8.49484e-010 7.73091 5.47488 0.417314 -3.07097e-010 5.06984e-010 8.49492e-010 2.90554 0.965183 0.102902 -3.07087e-010 5.06984e-010 8.49489e-010 10.2786 0.731801 0.0259123 -3.07101e-010 5.06985e-010 8.49491e-010 2.22167 -0.733487 -0.20892 1.09488e-014 -8.17691e-014 -1.58263e-014 -21.6054 6.05277 -0.422571 4.02007 -1.78858 -6.31956 -0.00232319 1.06968 -0.15024 2.01687e-010 9.30535e-011 -1.37908e-009 3.42538e-010 1.61509e-010 -2.38508e-009 2.01681e-010 9.30543e-011 -1.37907e-009 -7.73091 5.47488 -0.417314 2.01686e-010 9.3052e-011 -1.37908e-009 -2.90554 0.965183 -0.102902 2.01683e-010 9.30515e-011 -1.37908e-009 -10.2786 0.731801 -0.0259123 2.01691e-010 9.30526e-011 -1.37909e-009 -2.22167 -0.733487 0.20892 -2.03217e-016 0 -3.88251e-019 2.33122 -5.44004 5.09514 0.0499761 9.49527 0.188914 -2.06718 -6.1675 -8.58154 2.03217e-016 0 3.88251e-019 -0.385765 -3.97511 -5.62867 -0.0490977 7.1856 -0.144928 1.6684 -3.49091 7.74925 
-132.091 84.0421 6.31713 -2.23017 -8.99329 48.6997 -0.259946 3.63535 3.4778 -0.568659 -0.21514 1.04091 5.99316 6.61053 3.1128 -4.80627 -6.68664 5.43802 -0 0 0 -0 0 0 2.4607e-014 -1.34011e-013 -3.17558e-014 46.416 16.678 -1.3056 -9.32877 -4.69889 15.3021 -0.0208018 -8.70631 -1.22255 -6.56528e-010 1.06345e-009 1.83756e-009 -1.14595e-009 1.84485e-009 3.16794e-009 -6.56518e-010 1.06345e-009 1.83756e-009 7.73091 5.47488 0.417314 -6.56524e-010 1.06345e-009 1.83756e-009 2.90554 0.965183 0.102902 -6.56514e-010 1.06345e-009 1.83756e-009 10.2786 0.731801 0.0259123 -6.56529e-010 1.06345e-009 1.83756e-009 2.22167 -0.733487 -0.20892 2.44385e-014 -1.34007e-013 -3.20323e-014 -44.347 12.4513 -0.885228 7.84572 -3.60823 -13.0231 0.00133074 2.20425 -0.30977 4.32921e-010 1.96711e-010 -2.96243e-009 7.3525e-010 3.41395e-010 -5.12345e-009 4.32915e-010 1.96711e-010 -2.96242e-009 -7.73091 5.47488 -0.417314 4.3292e-010 1.96708e-010 -2.96243e-009 -2.90554 0.965183 -0.102902 4.32917e-010 1.96707e-010 -2.96243e-009 -10.2786 0.731801 -0.0259123 4.32928e-010 1.96709e-010 -2.96244e-009 -2.22167 -0.733487 0.20892 -2.03217e-016 0 -3.88251e-019 4.08772 -6.45363 10.5782 0.0492213 16.9557 0.413243 -6.46173 -14.2022 -18.2237 2.03217e-016 0 3.88251e-019 -1.04671 -5.53555 -11.6289 -0.040045 16.0157 -0.380274 5.05726 -10.6012 16.3315 
-132.112 84.0296 6.28929 0.747699 -6.66069 70.9453 -0.757554 5.27943 5.07419 -0.890352 -0.305898 1.50617 8.49299 9.62174 4.57359 -6.57784 -9.70003 7.99108 -0 0 0 -0 0 0 3.37815e-014 -2.45342e-013 -4.70157e-014 67.9662 24.3182 -1.9993 -12.776 -6.57177 22.3923 -0.157478 -12.6926 -1.80639 -9.15615e-010 1.52077e-009 2.54787e-009 -1.59793e-009 2.6383e-009 4.39231e-009 -9.15605e-010 1.52077e-009 2.54787e-009 7.73091 5.47488 0.417314 -9.1561e-010 1.52077e-009 2.54786e-009 2.90554 0.965183 0.102902 -9.156e-010 1.52077e-009 2.54786e-009 10.2786 0.731801 0.0259123 -9.15616e-010 1.52077e-009 2.54786e-009 2.22167 -0.733487 -0.20892 3.35396e-014 -2.45335e-013 -4.72801e-014 -64.5364 18.1543 -1.3267 10.8966 -5.10515 -19.0278 0.00988211 3.20896 -0.451348 6.10737e-010 2.78946e-010 -4.13785e-009 1.0374e-009 4.84164e-010 -7.15632e-009 6.1073e-010 2.78945e-010 -4.13784e-009 -7.73091 5.47488 -0.417314 6.10735e-010 2.78941e-010 -4.13785e-009 -2.90554 0.965183 -0.102902 6.10732e-010 2.7894e-010 -4.13785e-009 -10.2786 0.731801 -0.0259123 6.10746e-010 2.78943e-010 -4.13786e-009 -2.22167 -0.733487 0.20892 -2.03217e-016 0 -3.88251e-019 5.82357 -7.28988 15.4902 -0.00547277 23.6059 0.634563 -12.7624 -20.2945 -27.6285 2.03217e-016 0 3.88251e-019 -1.91039 -6.8314 -17.0162 0.0351759 23.8877 -0.61612 9.92318 -16.2353 24.4909 
